<svg width="154" height="32" viewBox="0 0 154 32" fill="none" xmlns="http://www.w3.org/2000/svg">
<path d="M0.046875 8.375H4.29688L4.40625 10.0625C5.0625 9.42708 5.82812 8.9375 6.70312 8.59375C7.57812 8.23958 8.52083 8.0625 9.53125 8.0625C11 8.0625 12.3073 8.41667 13.4531 9.125C14.599 9.82292 15.5 10.7865 16.1562 12.0156C16.8125 13.2344 17.1406 14.625 17.1406 16.1875C17.1406 17.75 16.8125 19.1458 16.1562 20.375C15.5 21.5938 14.599 22.5573 13.4531 23.2656C12.3073 23.9635 11 24.3125 9.53125 24.3125C8.55208 24.3125 7.64062 24.151 6.79688 23.8281C5.95312 23.4948 5.20312 23.0365 4.54688 22.4531V31.8125H0.046875V8.375ZM8.51562 11.9688C7.36979 11.9688 6.42188 12.3698 5.67188 13.1719C4.92188 13.974 4.54688 14.9792 4.54688 16.1875C4.54688 17.3958 4.92188 18.401 5.67188 19.2031C6.42188 20.0052 7.36979 20.4062 8.51562 20.4062C9.66146 20.4062 10.6094 20.0052 11.3594 19.2031C12.1094 18.401 12.4844 17.3958 12.4844 16.1875C12.4844 14.9792 12.1094 13.974 11.3594 13.1719C10.6094 12.3698 9.66146 11.9688 8.51562 11.9688ZM19.0156 16.1875C19.0156 14.625 19.375 13.2344 20.0938 12.0156C20.8229 10.7865 21.8125 9.82292 23.0625 9.125C24.3229 8.41667 25.7552 8.0625 27.3594 8.0625C28.9635 8.0625 30.3906 8.41667 31.6406 9.125C32.8906 9.82292 33.875 10.7865 34.5938 12.0156C35.3229 13.2344 35.6875 14.625 35.6875 16.1875C35.6875 17.75 35.3229 19.1458 34.5938 20.375C33.875 21.5938 32.8906 22.5573 31.6406 23.2656C30.3906 23.9635 28.9635 24.3125 27.3594 24.3125C25.7552 24.3125 24.3229 23.9635 23.0625 23.2656C21.8125 22.5573 20.8229 21.5938 20.0938 20.375C19.375 19.1458 19.0156 17.75 19.0156 16.1875ZM23.3906 16.1875C23.3906 17.3958 23.7656 18.401 24.5156 19.2031C25.2656 20.0052 26.2135 20.4062 27.3594 20.4062C28.5052 20.4062 29.4531 20.0052 30.2031 19.2031C30.9531 18.401 31.3281 17.3958 31.3281 16.1875C31.3281 14.9792 30.9531 13.974 30.2031 13.1719C29.4531 12.3698 28.5052 11.9688 27.3594 11.9688C26.2135 11.9688 25.2656 12.3698 24.5156 13.1719C23.7656 13.974 23.3906 14.9792 23.3906 16.1875ZM43.1719 24H38.6719V8.375H42.9219L43.0312 10.0312C44.1354 8.71875 45.6302 8.0625 47.5156 8.0625C49.9219 8.0625 51.625 9.08854 52.625 11.1406C53.1458 10.151 53.849 9.39062 54.7344 8.85938C55.6198 8.32812 56.6615 8.0625 57.8594 8.0625C59.7552 8.0625 61.2292 8.72917 62.2812 10.0625C63.3333 11.3854 63.8594 13.2292 63.8594 15.5938V24H59.3594V15.5938C59.3594 14.3854 59.0729 13.4792 58.5 12.875C57.9375 12.2708 57.2552 11.9688 56.4531 11.9688C55.6406 11.9688 54.9479 12.2812 54.375 12.9062C53.8021 13.5312 53.5156 14.4635 53.5156 15.7031V24H49.0156V15.5938C49.0156 14.3854 48.7292 13.4792 48.1562 12.875C47.5938 12.2708 46.9115 11.9688 46.1094 11.9688C45.2969 11.9688 44.6042 12.2812 44.0312 12.9062C43.4583 13.5312 43.1719 14.4635 43.1719 15.7031V24ZM66.5156 16.1875C66.5156 14.625 66.875 13.2344 67.5938 12.0156C68.3229 10.7865 69.3125 9.82292 70.5625 9.125C71.8229 8.41667 73.2552 8.0625 74.8594 8.0625C76.4635 8.0625 77.8906 8.41667 79.1406 9.125C80.3906 9.82292 81.375 10.7865 82.0938 12.0156C82.8229 13.2344 83.1875 14.625 83.1875 16.1875C83.1875 17.75 82.8229 19.1458 82.0938 20.375C81.375 21.5938 80.3906 22.5573 79.1406 23.2656C77.8906 23.9635 76.4635 24.3125 74.8594 24.3125C73.2552 24.3125 71.8229 23.9635 70.5625 23.2656C69.3125 22.5573 68.3229 21.5938 67.5938 20.375C66.875 19.1458 66.5156 17.75 66.5156 16.1875ZM70.8906 16.1875C70.8906 17.3958 71.2656 18.401 72.0156 19.2031C72.7656 20.0052 73.7135 20.4062 74.8594 20.4062C76.0052 20.4062 76.9531 20.0052 77.7031 19.2031C78.4531 18.401 78.8281 17.3958 78.8281 16.1875C78.8281 14.9792 78.4531 13.974 77.7031 13.1719C76.9531 12.3698 76.0052 11.9688 74.8594 11.9688C73.7135 11.9688 72.7656 12.3698 72.0156 13.1719C71.2656 13.974 70.8906 14.9792 70.8906 16.1875ZM85.0781 16.1875C85.0781 14.625 85.4062 13.2344 86.0625 12.0156C86.7188 10.7865 87.6198 9.82292 88.7656 9.125C89.9219 8.41667 91.2292 8.0625 92.6875 8.0625C93.6667 8.0625 94.5781 8.22917 95.4219 8.5625C96.2656 8.88542 97.0156 9.33854 97.6719 9.92188V0.5625H102.172V24H97.9219L97.8125 22.3125C97.1562 22.9479 96.3906 23.4427 95.5156 23.7969C94.651 24.1406 93.7083 24.3125 92.6875 24.3125C91.2292 24.3125 89.9219 23.9635 88.7656 23.2656C87.6198 22.5573 86.7188 21.5938 86.0625 20.375C85.4062 19.1458 85.0781 17.75 85.0781 16.1875ZM89.7344 16.1875C89.7344 17.3958 90.1094 18.401 90.8594 19.2031C91.6094 20.0052 92.5573 20.4062 93.7031 20.4062C94.849 20.4062 95.7969 20.0052 96.5469 19.2031C97.2969 18.401 97.6719 17.3958 97.6719 16.1875C97.6719 14.9792 97.2969 13.974 96.5469 13.1719C95.7969 12.3698 94.849 11.9688 93.7031 11.9688C92.5573 11.9688 91.6094 12.3698 90.8594 13.1719C90.1094 13.974 89.7344 14.9792 89.7344 16.1875ZM105.141 16.1875C105.141 14.625 105.5 13.2344 106.219 12.0156C106.948 10.7865 107.938 9.82292 109.188 9.125C110.448 8.41667 111.88 8.0625 113.484 8.0625C115.089 8.0625 116.516 8.41667 117.766 9.125C119.016 9.82292 120 10.7865 120.719 12.0156C121.448 13.2344 121.812 14.625 121.812 16.1875C121.812 17.75 121.448 19.1458 120.719 20.375C120 21.5938 119.016 22.5573 117.766 23.2656C116.516 23.9635 115.089 24.3125 113.484 24.3125C111.88 24.3125 110.448 23.9635 109.188 23.2656C107.938 22.5573 106.948 21.5938 106.219 20.375C105.5 19.1458 105.141 17.75 105.141 16.1875ZM109.516 16.1875C109.516 17.3958 109.891 18.401 110.641 19.2031C111.391 20.0052 112.339 20.4062 113.484 20.4062C114.63 20.4062 115.578 20.0052 116.328 19.2031C117.078 18.401 117.453 17.3958 117.453 16.1875C117.453 14.9792 117.078 13.974 116.328 13.1719C115.578 12.3698 114.63 11.9688 113.484 11.9688C112.339 11.9688 111.391 12.3698 110.641 13.1719C109.891 13.974 109.516 14.9792 109.516 16.1875ZM124.797 24V8.375H128.734L128.953 10.6094C130.089 8.91146 131.651 8.0625 133.641 8.0625C134.318 8.0625 135.016 8.16667 135.734 8.375L135.109 12.2656C134.505 12.0677 133.911 11.9688 133.328 11.9688C132.12 11.9688 131.146 12.4167 130.406 13.3125C129.667 14.1979 129.297 15.4635 129.297 17.1094V24H124.797ZM136.359 16.1875C136.359 14.625 136.719 13.2344 137.438 12.0156C138.167 10.7865 139.156 9.82292 140.406 9.125C141.667 8.41667 143.099 8.0625 144.703 8.0625C146.307 8.0625 147.734 8.41667 148.984 9.125C150.234 9.82292 151.219 10.7865 151.938 12.0156C152.667 13.2344 153.031 14.625 153.031 16.1875C153.031 17.75 152.667 19.1458 151.938 20.375C151.219 21.5938 150.234 22.5573 148.984 23.2656C147.734 23.9635 146.307 24.3125 144.703 24.3125C143.099 24.3125 141.667 23.9635 140.406 23.2656C139.156 22.5573 138.167 21.5938 137.438 20.375C136.719 19.1458 136.359 17.75 136.359 16.1875ZM140.734 16.1875C140.734 17.3958 141.109 18.401 141.859 19.2031C142.609 20.0052 143.557 20.4062 144.703 20.4062C145.849 20.4062 146.797 20.0052 147.547 19.2031C148.297 18.401 148.672 17.3958 148.672 16.1875C148.672 14.9792 148.297 13.974 147.547 13.1719C146.797 12.3698 145.849 11.9688 144.703 11.9688C143.557 11.9688 142.609 12.3698 141.859 13.1719C141.109 13.974 140.734 14.9792 140.734 16.1875Z" fill="#D7E0FF"/>
</svg>
