<svg width="340" height="340" viewBox="0 0 340 340" fill="none" xmlns="http://www.w3.org/2000/svg">
<path d="M29.536 75.1017C31.2387 72.5862 34.6582 71.9273 37.1737 73.63C39.6892 75.3327 40.3481 78.7522 38.6454 81.2677C21.048 107.265 11.5 137.913 11.5 170C11.5 257.537 82.4629 328.5 170 328.5C257.537 328.5 328.5 257.537 328.5 170C328.5 82.4629 257.537 11.5 170 11.5C166.962 11.5 164.5 9.03757 164.5 6C164.5 2.96243 166.962 0.5 170 0.5C263.612 0.5 339.5 76.3877 339.5 170C339.5 263.612 263.612 339.5 170 339.5C76.3877 339.5 0.5 263.612 0.5 170C0.5 135.698 10.716 102.905 29.536 75.1017Z" fill="#F87070"/>
</svg>
